<?xml version="1.0" encoding="UTF-8"?>
<svg version="1.1" xmlns="http://www.w3.org/2000/svg" width="512" height="512">
<path d="M0 0 C9.40780678 8.04353268 15.20577799 18.27373197 21.0859375 29.0234375 C22.32153067 31.25597597 23.55851267 33.48774636 24.796875 35.71875 C25.39338867 36.79415039 25.98990234 37.86955078 26.60449219 38.97753906 C28.75257296 42.8174377 30.96381813 46.61586574 33.2109375 50.3984375 C37.34687479 57.36848068 41.41465051 64.37595168 45.4609375 71.3984375 C46.09894287 72.50566162 46.73694824 73.61288574 47.39428711 74.75366211 C48.70233227 77.02430818 50.01019198 79.29506108 51.31787109 81.56591797 C54.46675804 87.0326373 57.62027014 92.49668637 60.7734375 97.9609375 C62.023461 100.12759061 63.27346097 102.29425729 64.5234375 104.4609375 C65.1421875 105.5334375 65.7609375 106.6059375 66.3984375 107.7109375 C72.0234375 117.46093749 72.0234375 117.46093749 73.89868164 120.71142578 C75.14779268 122.87650821 76.39697879 125.04154732 77.64624023 127.20654297 C80.78546059 132.64709456 83.92334313 138.08840966 87.05859375 143.53125 C93.08091079 153.98299949 99.12013087 164.42393298 105.2109375 174.8359375 C110.63264928 184.10593527 115.97548665 193.41925502 121.29266357 202.74938965 C126.49388879 211.8737659 131.75371628 220.96226524 137.05688477 230.02783203 C143.21110492 240.55178375 149.29713746 251.11473887 155.38232422 261.67871094 C157.88742081 266.02657029 160.39492125 270.37303934 162.90332031 274.71899414 C164.14477658 276.87112179 165.38502181 279.02394849 166.62402344 281.17749023 C169.51765896 286.20405936 172.42139019 291.22375325 175.36776733 296.21957397 C176.40297983 297.97610442 177.43444953 299.73478012 178.46484375 301.49414062 C179.75306528 303.69117597 181.04815264 305.88420672 182.3515625 308.07226562 C191.06613694 322.98280673 194.68632267 337.58665968 191.58984375 354.75 C187.00808734 370.68158451 177.2839092 382.26501242 162.99609375 390.26953125 C153.54028623 394.80304379 144.63929361 395.39559425 134.25686646 395.34861755 C132.74710726 395.35279605 131.23735121 395.35827639 129.72760093 395.36493737 C125.60032257 395.37934308 121.47324472 395.37516258 117.34595561 395.36777055 C112.88640027 395.36302907 108.4268877 395.3755574 103.96734619 395.38578796 C95.23898934 395.40296217 86.51070453 395.40381882 77.78233518 395.39857506 C70.68598698 395.39452951 63.58966002 395.39598149 56.49331284 395.40132332 C55.4823502 395.40207174 54.47138756 395.40282016 53.42978968 395.40359126 C51.37585179 395.40512278 49.32191391 395.40666113 47.26797603 395.40820623 C28.01729137 395.42192632 8.76664738 395.41649706 -10.48403634 395.40502102 C-28.0836858 395.39508946 -45.68323012 395.40802887 -63.28286336 395.43195521 C-81.36796729 395.45635571 -99.45302227 395.46595172 -117.53814232 395.45930248 C-127.68604155 395.45581234 -137.83385992 395.4580288 -147.98174667 395.47555351 C-156.62048511 395.49028736 -165.25908576 395.49089545 -173.89782153 395.4734826 C-178.30239352 395.46497995 -182.70671949 395.46280503 -187.11127853 395.47813416 C-191.149291 395.49201322 -195.18684744 395.48717713 -199.22483374 395.46789492 C-200.67964992 395.46414443 -202.13450291 395.46702931 -203.58928619 395.47750657 C-220.073943 395.58771472 -233.31269768 390.76751434 -245.3671875 379.48046875 C-255.29522594 368.87850717 -259.86763982 356.2461612 -260.0390625 341.9609375 C-260.08256836 340.79884766 -260.08256836 340.79884766 -260.12695312 339.61328125 C-260.2539593 327.59654354 -255.30159137 317.30917975 -249.3515625 307.1484375 C-248.73724365 306.07585693 -248.1229248 305.00327637 -247.48999023 303.89819336 C-245.58281346 300.57746489 -243.65702079 297.2681759 -241.7265625 293.9609375 C-240.5584062 291.94802549 -239.39043188 289.93500787 -238.22265625 287.921875 C-235.91938147 283.96016378 -233.60700179 280.00392837 -231.2890625 276.05078125 C-227.5944294 269.74523331 -223.93803569 263.41799314 -220.2890625 257.0859375 C-219.66652588 256.00578369 -219.04398926 254.92562988 -218.40258789 253.81274414 C-217.14079424 251.62297416 -215.87915716 249.43311395 -214.61767578 247.24316406 C-211.48976102 241.81433808 -208.35797802 236.38774469 -205.2265625 230.9609375 C-203.97654371 228.79428167 -202.72654372 226.627615 -201.4765625 224.4609375 C-198.9765625 220.12760417 -196.4765625 215.79427083 -193.9765625 211.4609375 C-193.35773193 210.38827637 -192.73890137 209.31561523 -192.10131836 208.21044922 C-190.85220732 206.04536679 -189.60302121 203.88032768 -188.35375977 201.71533203 C-185.21453941 196.27478044 -182.07665687 190.83346534 -178.94140625 185.390625 C-172.32433358 173.9064493 -165.68022273 162.43896856 -158.99365234 150.99511719 C-152.82737196 140.43473468 -146.721603 129.83966984 -140.61767578 119.24316406 C-137.48976102 113.81433808 -134.35797802 108.38774469 -131.2265625 102.9609375 C-129.97654371 100.79428167 -128.72654372 98.627615 -127.4765625 96.4609375 C-119.9765625 83.4609375 -112.4765625 70.4609375 -104.9765625 57.4609375 C-104.35740967 56.387229 -103.73825684 55.31352051 -103.1003418 54.20727539 C-101.85619673 52.05178394 -100.61027941 49.89731441 -99.36254883 47.74389648 C-96.47070454 42.74813619 -93.59550728 37.74532366 -90.78695679 32.70230103 C-89.80520642 30.94153031 -88.81755839 29.18419754 -87.828125 27.42773438 C-86.59895834 25.24157368 -85.38054246 23.04931383 -84.17578125 20.84960938 C-75.77085065 5.97861285 -64.93925968 -4.17013978 -48.55078125 -9.3125 C-31.65174528 -13.65996983 -14.0334367 -10.49491971 0 0 Z " fill="#FABB08" transform="translate(289.7265625,53.0390625)"/>
<path d="M0 0 C8.36217534 5.57478356 13.96149107 11.65341755 17.0625 21.375 C18.456291 35.88823959 16.02334174 50.86161107 14.5078125 65.27734375 C14.24294442 67.85219599 13.97870401 70.42711286 13.71505737 73.00209045 C13.16388588 78.36728352 12.60713597 83.73185002 12.04541016 89.09594727 C11.39887927 95.27041846 10.76185548 101.44581266 10.130108 107.62181276 C9.51752313 113.60932157 8.89933662 119.59623422 8.27843857 125.58288765 C8.01651061 128.11159445 7.75578434 130.64042604 7.49631119 133.16938591 C7.13271486 136.70320633 6.7627925 140.23630885 6.39111328 143.76928711 C6.28609497 144.80066299 6.18107666 145.83203888 6.07287598 146.89466858 C3.93565821 166.95720631 3.93565821 166.95720631 -2.9375 173.375 C-8.64348113 177.48210726 -14.23781511 179.22876134 -21.265625 178.8515625 C-28.63713833 177.53676042 -33.40611165 173.54310151 -37.74609375 167.6328125 C-40.38737167 162.62737435 -41.21475786 157.22115046 -41.75952148 151.64648438 C-41.95498817 149.69518616 -41.95498817 149.69518616 -42.15440369 147.70446777 C-42.28926731 146.2925746 -42.42399334 144.88066829 -42.55859375 143.46875 C-42.70493398 141.98354699 -42.85184235 140.49839986 -42.99928284 139.01330566 C-43.38688637 135.09339957 -43.76670931 131.17277728 -44.14489746 127.25195312 C-44.51962314 123.38104681 -44.90172751 119.51087086 -45.28320312 115.640625 C-46.03137138 108.03693899 -46.770497 100.43239852 -47.50637817 92.82751465 C-47.86234673 89.14891938 -48.21980978 85.47047145 -48.57791615 81.79208374 C-48.85016887 78.99517681 -49.1219532 76.1982245 -49.39361763 73.40126038 C-49.57810667 71.50247108 -49.76291557 69.60371287 -49.94773865 67.70495605 C-50.70898766 59.84801228 -51.43258643 51.98830698 -52.125 44.125 C-52.21154343 43.14282501 -52.29808685 42.16065002 -52.38725281 41.14871216 C-53.48731608 28.34748638 -53.83779017 18.09036151 -45.4375 7.625 C-34.34647104 -3.7488603 -14.58051492 -7.49855053 0 0 Z " fill="#2D313E" transform="translate(273.9375,141.625)"/>
<path d="M0 0 C9.59816289 5.92989949 16.69644329 13.728732 19.71875 24.6796875 C20.82516154 36.25624618 20.03620193 46.32731092 13.00390625 56.05078125 C6.63648078 63.64431928 -1.2858061 69.58382694 -11.35107422 70.96337891 C-19.89297988 71.6437416 -27.86083253 71.37056814 -35.28125 66.6796875 C-36.291875 66.1228125 -37.3025 65.5659375 -38.34375 64.9921875 C-46.36122457 58.68055858 -52.3472145 50.8512816 -54.28125 40.6796875 C-54.87380423 31.79137403 -55.29383756 23.42359212 -50.28125 15.6796875 C-49.83394531 14.98488281 -49.38664063 14.29007812 -48.92578125 13.57421875 C-37.71896516 -2.43981068 -18.02339027 -8.76412109 0 0 Z " fill="#2D313D" transform="translate(273.28125,334.3203125)"/>
</svg>
