<?xml version="1.0" encoding="UTF-8"?>
<svg version="1.1" xmlns="http://www.w3.org/2000/svg" width="512" height="512">
<path d="M0 0 C0.78814087 0.00021149 1.57628174 0.00042297 2.38830566 0.00064087 C21.59689432 0.05189033 39.51623634 2.9061583 57.625 9.375 C58.68074219 9.73078125 59.73648438 10.0865625 60.82421875 10.453125 C87.52989632 19.96932629 113.94166779 38.09764746 131.625 60.375 C132.26622803 61.17236572 132.26622803 61.17236572 132.92041016 61.98583984 C149.21055099 82.38848324 160.71926482 105.57789296 166.8125 131 C167.04477295 131.96534668 167.04477295 131.96534668 167.28173828 132.95019531 C167.76964871 135.08553347 168.20674308 137.22488756 168.625 139.375 C168.80522705 140.29740479 168.9854541 141.21980957 169.17114258 142.17016602 C170.80520702 151.48863158 170.98111711 160.63397506 170.9375 170.0625 C170.93600952 170.85836517 170.93451904 171.65423035 170.9329834 172.47421265 C170.8940054 184.04035182 170.41315796 195.10218895 167.625 206.375 C167.3465625 207.60476562 167.068125 208.83453125 166.78125 210.1015625 C161.36384084 232.28491898 152.12068518 254.56767532 137.625 272.375 C136.93019531 273.25800781 136.23539062 274.14101563 135.51953125 275.05078125 C126.82006504 285.93666198 117.78878004 295.95006733 106.625 304.375 C106.10067383 304.77428711 105.57634766 305.17357422 105.03613281 305.58496094 C80.42976072 324.20324957 54.89683693 333.32063261 24.625 339.375 C24.625 360.165 24.625 380.955 24.625 402.375 C37.66791717 402.25678894 37.66791717 402.25678894 50.71044922 402.10473633 C52.36685602 402.09596014 54.02326938 402.0883189 55.6796875 402.08203125 C56.5137915 402.06668335 57.34789551 402.05133545 58.20727539 402.03552246 C66.71348346 402.03181228 74.84225717 403.61347678 81.15625 409.64453125 C85.501958 414.76460743 87.71387305 420.65873627 87.625 427.375 C87.04684905 434.37431687 84.43035841 439.30523191 79.625 444.375 C72.52639305 450.23906661 64.68945072 450.67666446 55.875 450.5703125 C54.97628174 450.5674826 54.07756348 450.56465271 53.15161133 450.56173706 C50.30926635 450.55063125 47.46724814 450.52554505 44.625 450.5 C42.6862025 450.48995777 40.74740001 450.48083411 38.80859375 450.47265625 C34.08060518 450.45072345 29.3528578 450.41626084 24.625 450.375 C24.64856567 452.15946533 24.64856567 452.15946533 24.67260742 453.97998047 C24.72730147 458.43417471 24.76149244 462.88833983 24.78979492 467.34277344 C24.80479221 469.26307178 24.82519682 471.18333639 24.85131836 473.10351562 C24.88810351 475.87899142 24.90481721 478.65401064 24.91796875 481.4296875 C24.93345261 482.2748996 24.94893646 483.12011169 24.96488953 483.99093628 C24.96723015 492.46222447 23.40217748 500.65496698 17.33203125 506.90234375 C11.04607355 512.3252409 5.20805382 513.02678918 -3.03125 512.75390625 C-9.32128776 512.04113328 -13.31459615 509.75057987 -17.6875 505.25 C-23.03780427 498.25989684 -23.82439189 489.9683051 -23.66796875 481.4296875 C-23.66372391 480.53379913 -23.65947906 479.63791077 -23.65510559 478.71487427 C-23.63850154 475.89292521 -23.60088593 473.07172801 -23.5625 470.25 C-23.54742946 468.32032292 -23.53374524 466.39063448 -23.52148438 464.4609375 C-23.4886583 459.76534153 -23.43700616 455.07029759 -23.375 450.375 C-24.56464355 450.39071045 -25.75428711 450.4064209 -26.97998047 450.42260742 C-31.43417471 450.47730147 -35.88833983 450.51149244 -40.34277344 450.53979492 C-42.26307178 450.55479221 -44.18333639 450.57519682 -46.10351562 450.60131836 C-48.87899142 450.63810351 -51.65401064 450.65481721 -54.4296875 450.66796875 C-55.69750565 450.69119453 -55.69750565 450.69119453 -56.99093628 450.71488953 C-65.48510617 450.71723647 -73.60268004 449.12656741 -79.90625 443.10546875 C-84.251958 437.98539257 -86.46387305 432.09126373 -86.375 425.375 C-85.79684905 418.37568313 -83.18035841 413.44476809 -78.375 408.375 C-71.27645297 402.51098289 -63.43989891 402.07286573 -54.625 402.1796875 C-53.42810547 402.18270874 -53.42810547 402.18270874 -52.20703125 402.18579102 C-49.26296127 402.19615351 -46.31897407 402.22407504 -43.375 402.25 C-36.775 402.29125 -30.175 402.3325 -23.375 402.375 C-23.375 381.585 -23.375 360.795 -23.375 339.375 C-29.975 338.055 -36.575 336.735 -43.375 335.375 C-75.90386722 326.25705995 -106.77773293 308.8152906 -128.375 282.375 C-128.80925293 281.8584082 -129.24350586 281.34181641 -129.69091797 280.80957031 C-150.32420886 256.25367918 -163.63828868 227.18383831 -168.375 195.375 C-168.54555908 194.30950928 -168.71611816 193.24401855 -168.8918457 192.14624023 C-169.38562439 188.2920718 -169.56997877 184.50368147 -169.61328125 180.625 C-169.62790405 179.53424164 -169.62790405 179.53424164 -169.64282227 178.42144775 C-169.88382391 155.76187027 -168.04955964 134.85902961 -160.375 113.375 C-160.01921875 112.31925781 -159.6634375 111.26351562 -159.296875 110.17578125 C-149.78067371 83.47010368 -131.65235254 57.05833221 -109.375 39.375 C-108.84342285 38.94751465 -108.3118457 38.5200293 -107.76416016 38.07958984 C-87.36151676 21.78944901 -64.17210704 10.28073518 -38.75 4.1875 C-38.10643555 4.03265137 -37.46287109 3.87780273 -36.79980469 3.71826172 C-24.51831548 0.91202388 -12.5505643 -0.03117681 0 0 Z M-28.375 50.375 C-29.03902832 50.54128906 -29.70305664 50.70757812 -30.38720703 50.87890625 C-63.6428333 59.54800506 -90.41071962 81.95738849 -107.66015625 111.19921875 C-122.57500275 137.38540833 -126.72938942 170.18183804 -119.375 199.375 C-119.20871094 200.03902832 -119.04242188 200.70305664 -118.87109375 201.38720703 C-110.74033745 232.57769162 -89.92735878 259.85809639 -62.375 276.375 C-35.62615716 291.93508605 -2.97720032 298.47580653 27.41455078 290.96582031 C60.68892672 282.07207282 88.81603054 263.39173079 106.625 233.375 C122.50902174 205.52465986 128.52526429 172.73500577 120.625 141.375 C120.37556641 140.37895752 120.37556641 140.37895752 120.12109375 139.36279297 C111.45199494 106.1071667 89.04261151 79.33928038 59.80078125 62.08984375 C33.61459167 47.17499725 0.81816196 43.02061058 -28.375 50.375 Z " fill="#FE4080" transform="translate(255.375,-0.375)"/>
<path d="M0 0 C4.51656908 -0.07490483 9.03279623 -0.12895323 13.54980469 -0.16479492 C15.08209543 -0.17975744 16.61434429 -0.20013497 18.14648438 -0.22631836 C40.29774032 -0.59502399 40.29774032 -0.59502399 48.53125 7.26953125 C52.876958 12.38960743 55.08887305 18.28373627 55 25 C54.42184905 31.99931687 51.80535841 36.93023191 47 42 C40.47822476 47.38755346 33.21487349 48.31991658 25 48.1953125 C23.91827515 48.19106766 23.91827515 48.19106766 22.81469727 48.18673706 C20.54295253 48.17566696 18.27162273 48.15058895 16 48.125 C14.44662033 48.1149531 12.8932344 48.10583027 11.33984375 48.09765625 C7.55973938 48.07577111 3.77993968 48.04133514 0 48 C0 47.67 0 47.34 0 47 C0.556875 46.92523438 1.11375 46.85046875 1.6875 46.7734375 C8.94991064 45.52214378 13.92557343 42.76841121 18.609375 37.02734375 C22.52573263 30.96579023 23.02134962 25.06272897 22 18 C20.26336876 11.90135971 16.46948126 7.19218815 11 4 C7.38435637 2.7086987 3.75797965 1.77470105 0 1 C0 0.67 0 0.34 0 0 Z " fill="#D63D76" transform="translate(288,402)"/>
</svg>
