<?xml version="1.0" encoding="UTF-8"?>
<svg version="1.1" xmlns="http://www.w3.org/2000/svg" width="90" height="90">
<path d="M0 0 C23.76 0 47.52 0 72 0 C73 4 73 4 72 6 C71.09894531 6.23847656 70.19789062 6.47695313 69.26953125 6.72265625 C65.09777453 8.35248235 63.23109623 10.92905931 60.6875 14.4375 C60.20659912 15.0577002 59.72569824 15.67790039 59.23022461 16.31689453 C56.9538897 19.26318375 54.90111517 22.16602648 52.9921875 25.37109375 C50.49174951 29.26347597 48.41580416 32.2530689 43.83642578 33.66894531 C37.44499898 34.87535411 29.92733133 35.39735225 24.17382812 31.88525391 C20.88950961 29.01813815 18.52852904 25.55151251 16.20898438 21.88720703 C14.56943119 19.32788835 12.77372685 16.90626388 10.93798828 14.48510742 C10.08318224 13.35548552 9.24697864 12.21146281 8.43310547 11.05200195 C6.50785705 8.41392681 5.37890576 7.11674967 2.2109375 6.140625 C1.11652344 6.07101563 1.11652344 6.07101563 0 6 C-1.125 2.25 -1.125 2.25 0 0 Z " fill="#000000" transform="translate(9,12)"/>
<path d="M0 0 C5.94 0 11.88 0 18 0 C18 7.26 18 14.52 18 22 C14.3803125 23.2375 14.3803125 23.2375 10.6875 24.5 C9.55380981 24.89155273 9.55380981 24.89155273 8.3972168 25.29101562 C5.47512677 26.27717698 3.10385594 27 0 27 C0 18.09 0 9.18 0 0 Z " fill="#000000" transform="translate(36,51)"/>
</svg>
