<?xml version="1.0" encoding="UTF-8"?>
<svg version="1.1" xmlns="http://www.w3.org/2000/svg" width="512" height="512">
<path d="M0 0 C10.56 0 21.12 0 32 0 C32 53.13 32 106.26 32 161 C35.3 161.33 38.6 161.66 42 162 C53.44178807 164.66061539 63.76588385 169.3343843 74 175 C74.98742187 175.54398438 75.97484375 176.08796875 76.9921875 176.6484375 C101.7705459 191.37180988 118.8738876 217.46729301 126 245 C127.70201552 251.94135246 128.58403995 258.86925637 129 266 C129.05414063 266.86625 129.10828125 267.7325 129.1640625 268.625 C130.1411571 299.89202726 117.99848934 327.7155289 97.5703125 350.73828125 C83.59480158 365.4698444 65.44475702 375.56781391 46 381 C44.40478516 381.47953125 44.40478516 381.47953125 42.77734375 381.96875 C25.29269806 386.38592365 3.2609887 386.15819973 -14 381 C-14.98613281 380.73316406 -15.97226563 380.46632813 -16.98828125 380.19140625 C-44.96749155 371.85323099 -68.67589248 352.2374015 -83 327 C-97.77587873 299.5051929 -100.75497898 268.84461212 -92.25390625 238.82421875 C-82.82646425 208.93853384 -62.22019684 185.23157473 -34.69262695 170.70043945 C-28.04169495 167.35208685 -21.14243575 165.0755078 -14 163 C-12.75863281 162.63068359 -12.75863281 162.63068359 -11.4921875 162.25390625 C-7.40490513 161.12718392 -4.37162557 161 0 161 C0 107.87 0 54.74 0 0 Z M-35 211 C-36.10794922 211.87398437 -36.10794922 211.87398437 -37.23828125 212.765625 C-50.35456961 223.54861854 -57.65260434 238.89763508 -62 255 C-62 255.33 -62 255.66 -62 256 C-10.52 256 40.96 256 94 256 C88.38989869 233.55959477 77.32523848 216.42483842 57.6875 203.75 C28.20095617 186.31508245 -8.68790902 188.57002081 -35 211 Z M-62 288 C-59.32283123 297.87227605 -59.32283123 297.87227605 -55.3125 307 C-54.78813354 308.0211792 -54.78813354 308.0211792 -54.25317383 309.06298828 C-45.77554376 325.17447623 -34.01117915 335.78474022 -18 344 C-17.1853125 344.42152344 -16.370625 344.84304688 -15.53125 345.27734375 C1.66423788 353.53242398 22.12172239 353.83078255 40.125 348.25 C50.17317689 344.62409329 58.87352406 339.92748769 67 333 C67.73863281 332.41734375 68.47726562 331.8346875 69.23828125 331.234375 C82.35456961 320.45138146 89.65260434 305.10236492 94 289 C94 288.67 94 288.34 94 288 C42.52 288 -8.96 288 -62 288 Z " fill="#000000" transform="translate(240,64)"/>
</svg>
