<?xml version="1.0" encoding="UTF-8"?>
<svg version="1.1" xmlns="http://www.w3.org/2000/svg" width="512" height="512">
<path d="M0 0 C55.11 0 110.22 0 167 0 C167 55.11 167 110.22 167 167 C146.21 167 125.42 167 104 167 C103.67 147.86 103.34 128.72 103 109 C83.53 128.47 64.06 147.94 44 168 C48.00521802 175.36582724 48.00521802 175.36582724 52.08984375 182.6875 C73.37967557 220.85616255 77.22559021 267.09389704 65.37890625 308.91015625 C58.10049601 332.97933512 46.12433455 354.47733173 28.984375 372.86328125 C27.22693373 374.75564419 25.57573504 376.69255249 23.9375 378.6875 C-1.04060832 407.87387657 -43.02089044 424.35986188 -80.38671875 427.68359375 C-125.58410297 431.06544876 -169.0488475 416.98410146 -203.58398438 387.65478516 C-236.23334152 359.25557958 -257.7970985 318.58460847 -260.87109375 275.15625 C-262.61489526 232.45953424 -252.45860546 191.5303103 -225 158 C-224.55043945 157.44505859 -224.10087891 156.89011719 -223.63769531 156.31835938 C-195.76327172 122.08396236 -155.95265055 100.51406823 -111.97583008 95.89648438 C-75.06466028 92.59835494 -39.69611624 100.42145348 -7.8203125 119.3359375 C-5.59762657 120.64738377 -3.30828492 121.84585754 -1 123 C18.47 103.53 37.94 84.06 58 64 C38.86 63.67 19.72 63.34 0 63 C0 42.21 0 21.42 0 0 Z M-172.609375 193.39501953 C-191.05507701 214.68400216 -199.76587803 241.94216026 -198 270 C-195.74641445 292.147654 -187.27074049 313.63152257 -172 330 C-171.5369043 330.49870605 -171.07380859 330.99741211 -170.59667969 331.51123047 C-151.61802686 351.7613904 -126.82783655 363.69180505 -99.015625 365.21875 C-70.16015567 366.10024085 -44.38745991 355.43134715 -23.0625 336.375 C-3.99463816 318.15459869 7.92945613 292.42905176 9 266 C9.49913891 236.94387647 -0.57141883 210.54564115 -20.54443359 189.4296875 C-39.02555118 170.50615568 -63.56376699 159.45604037 -90 158 C-90.67675781 157.95875 -91.35351562 157.9175 -92.05078125 157.875 C-122.59386104 156.95468121 -152.33463388 170.8853224 -172.609375 193.39501953 Z " fill="#4FC8EF" transform="translate(303,42)"/>
</svg>
