<?xml version="1.0" encoding="UTF-8"?>
<svg version="1.1" xmlns="http://www.w3.org/2000/svg" width="24" height="24">
<path d="M0 0 C5.28 0 10.56 0 16 0 C16 7.92 16 15.84 16 24 C10.72 24 5.44 24 0 24 C0 16.08 0 8.16 0 0 Z M3 3 C3 3.66 3 4.32 3 5 C3.66 5 4.32 5 5 5 C5 4.34 5 3.68 5 3 C4.34 3 3.68 3 3 3 Z M11 4 C11.99 4.495 11.99 4.495 13 5 C13 10.94 13 16.88 13 23 C15.52775351 19.20836973 15.22443035 16.19125969 15.125 11.8125 C15.11597656 11.06291016 15.10695313 10.31332031 15.09765625 9.54101562 C15.07412578 7.69387346 15.03825561 5.84689588 15 4 C13.68 4 12.36 4 11 4 Z M1 7 C5 8 5 8 5 8 Z M6 21 C10 22 10 22 10 22 Z " fill="#000000" transform="translate(4,0)"/>
</svg>
