<?xml version="1.0" encoding="UTF-8"?>
<svg version="1.1" xmlns="http://www.w3.org/2000/svg" width="50" height="50">
<path d="M0 0 C2.97 1.65 5.94 3.3 9 5 C9 6.32 9 7.64 9 9 C6.03 10.65 3.06 12.3 0 14 C0 12.35 0 10.7 0 9 C-5.41342681 10.14514798 -7.9342948 11.34012809 -11 16 C-9.7345464 19.90181526 -8.59658191 21.94481034 -5 24 C-2.35065178 24.71433121 -2.35065178 24.71433121 0 25 C0 23.35 0 21.7 0 20 C2.97 21.65 5.94 23.3 9 25 C9 26.32 9 27.64 9 29 C6.03 30.65 3.06 32.3 0 34 C0 32.35 0 30.7 0 29 C-1.216875 29.0825 -2.43375 29.165 -3.6875 29.25 C-7.0726174 29.26200396 -7.93868234 29.03913893 -10.9375 27.125 C-13 25 -13 25 -14 23 C-14.66 23 -15.32 23 -16 23 C-17.35386936 24.65002828 -18.68678142 26.3174387 -20 28 C-22.52475462 29.26237731 -24.31200466 29.09856404 -27.125 29.0625 C-28.03507812 29.05347656 -28.94515625 29.04445313 -29.8828125 29.03515625 C-30.93082031 29.01775391 -30.93082031 29.01775391 -32 29 C-32 27.68 -32 26.36 -32 25 C-31.39671875 24.91363281 -30.7934375 24.82726562 -30.171875 24.73828125 C-24.71717733 23.78960711 -24.71717733 23.78960711 -20.4375 20.375 C-19.963125 19.59125 -19.48875 18.8075 -19 18 C-20.26538668 14.09839108 -21.34474789 11.97581195 -25 10 C-28.65274469 9.27518916 -28.65274469 9.27518916 -32 9 C-32 7.68 -32 6.36 -32 5 C-23.0247473 4.37260369 -23.0247473 4.37260369 -18.9375 6.875 C-17 9 -17 9 -16 11 C-15.34 11 -14.68 11 -14 11 C-12.64613064 9.34997172 -11.31321858 7.6825613 -10 6 C-6.78548731 4.39274365 -3.56387464 4.94251815 0 5 C0 3.35 0 1.7 0 0 Z " fill="#000000" transform="translate(35,8)"/>
</svg>
